<svg width="1024" height="1024" viewBox="0 0 1024 1024" fill="none" xmlns="http://www.w3.org/2000/svg">
<rect width="1024" height="1024" fill="#242423"/>
<g clip-path="url(#clip0_28_7)">
<path d="M470.651 460.831C475.948 460.672 479.334 460.582 484.609 461.389C510.619 466.016 520.799 493.021 519.116 516.24C518.897 519.273 519.238 522.31 518.767 525.383C518.345 528.177 516.577 532.118 516.614 534.786C515.429 538.508 513.766 540.695 513.126 542.672C508.36 552.107 499.497 561.143 489.222 564.184C472.084 569.255 458.879 564.556 446.511 552.736C445.923 553.247 445.372 553.641 445.047 554.348C444.411 555.492 443.212 557.388 443.079 558.599C442.757 566.481 442.201 591.403 443.313 598.608C441.885 598.658 439.046 598.681 437.743 598.9L416.619 598.866L416.588 463.665C416.84 463.146 417.253 462.76 417.648 462.33C420.999 460.992 436.413 461.204 440.014 461.908C441.912 461.916 442.142 461.608 443.514 462.467C444.154 463.591 444.075 471.42 444.162 473.392C447.948 473.404 453.819 465.917 458.806 463.911C463.923 461.852 465.103 461.752 470.651 460.831ZM445.255 500.811C442.484 510.417 442.184 516.106 445.218 525.664C448.73 537.616 457.184 544.777 469.937 544.196C489.697 543.296 491.717 523.842 491.009 508.449C490.491 497.181 485.166 484.688 472.71 482.967C469.025 482.935 465.34 482.969 461.657 483.069C453.399 487.036 447.242 491.045 445.255 500.811Z" fill="#F8F8F7"/>
<path d="M416.588 463.665C416.84 463.146 417.253 462.76 417.648 462.33C420.999 460.992 436.413 461.204 440.014 461.908C435.311 462.028 434.405 462.685 430.045 463.332C426.382 463.875 420.396 463.735 416.588 463.665Z" fill="#CCCBCC"/>
<path d="M443.138 550.421C444.444 551.188 445.405 551.693 446.511 552.736C445.923 553.248 445.372 553.641 445.047 554.348C444.411 555.492 443.212 557.388 443.079 558.599C443.161 555.924 443.13 553.11 443.138 550.421Z" fill="#AFAFAD"/>
<path d="M445.255 500.811C444.939 508.002 445.601 515.197 445.252 522.387C445.199 523.476 445.15 524.575 445.218 525.664C442.184 516.106 442.484 510.418 445.255 500.811Z" fill="#7A7979" fill-opacity="0.533333"/>
<path d="M461.657 483.069C464.822 481.592 467.389 480.152 470.752 481.247C471.336 481.969 471.979 482.411 472.71 482.967C469.026 482.935 465.34 482.969 461.657 483.069Z" fill="#CCCBCC"/>
<path d="M193.191 457.097L193.352 456.487C197.037 454.178 254.271 454.258 257.798 456.584C262.505 461.191 278.302 490.45 277.669 496.067L277.776 496.187C278.345 496.809 278.771 497.047 279.482 497.491C276.069 500.228 231.373 497.819 223.087 499.146C214.681 506.811 206.334 520.022 199.543 529.131C191.489 539.932 183.607 550.706 175.562 561.52C171.204 567.384 166.846 575.003 162.088 580.45C152.786 591.102 146.784 603.23 136.843 613.284L136.513 613.07C131.728 609.963 100.505 588.647 100.03 585.789C99.764 584.189 100.396 582.353 101.217 581.014C106.263 572.777 114.482 563.702 120.335 555.709C139.437 529.626 159.085 503.903 177.954 477.666C180.966 473.479 183.91 469.229 187.023 465.116C189.049 462.439 191.346 459.897 193.191 457.097Z" fill="#F8F8F7"/>
<path d="M193.191 457.097L193.352 456.487C197.037 454.178 254.271 454.258 257.798 456.584C241.575 458.105 224.789 457.2 208.488 457.479C205.772 457.525 194.295 456.915 193.191 457.097Z" fill="#8D8B8B"/>
<path d="M223.087 499.146C223.58 498.479 224.31 497.218 225.109 497.114C236.683 495.621 248.863 496.585 260.551 496.494C264.953 496.46 274.238 498.775 277.669 496.068L277.776 496.188C278.345 496.809 278.771 497.047 279.482 497.491C276.069 500.229 231.373 497.819 223.087 499.146Z" fill="#CCCBCC"/>
<path d="M233.295 566.886C229.583 566.422 227.59 565.658 225.563 562.35C223.162 558.431 221.347 554.207 219.159 550.158C215.224 542.875 211.342 535.573 207.838 528.072C207.383 527.096 207.551 527.015 207.912 526.232C214.582 522.3 258.03 528.08 265.448 522.892C267.377 521.543 279.097 504.667 281.573 501.304L325.968 441.574C332.709 432.528 338.973 422.893 346.188 414.227C347.086 413.148 348.287 411.606 349.712 411.233C351.613 410.735 353.658 411.641 355.229 412.628C360.208 415.757 386.813 433.883 387.512 437.517C387.805 439.042 387.135 440.788 386.356 442.064C381.111 450.643 373.767 458.157 367.807 466.238C363.734 471.76 359.835 477.406 355.679 482.87C353.586 485.623 351.198 488.152 349.165 490.946C346.422 494.716 344.027 498.749 341.331 502.56C338.694 506.289 335.64 509.695 332.951 513.38C328.459 519.535 324.272 525.968 319.712 532.065L301.735 555.833C300.299 557.707 294.986 564.09 293.992 565.629L293.908 565.76C287.788 568.665 243.967 565.008 233.295 566.886Z" fill="#F8F8F7"/>
<path d="M538.478 493.317C536.641 492.914 536.56 493.219 535.558 492.017C534.386 487.787 537.29 482.456 539.151 478.782C542.903 471.809 552.336 464.493 560.038 462.79C573.467 459.818 592.755 459.072 605.105 465.942C625.177 477.108 621.506 498.83 622.054 518.261C621.896 524.249 621.202 558.984 622.285 562.767C620.103 564.229 610.649 564.131 607.754 564.208C604.846 564.187 602.457 564.095 599.557 563.872C598.267 562.787 596.965 561.714 595.651 560.655C595.311 558.355 595.286 556.566 595.229 554.262C589.576 556.563 583.233 562.804 577.007 564.354C566.422 566.796 556.12 566.529 546.269 561.815C532.265 555.117 526.404 535.588 533.708 522.207C544.436 502.56 573.389 503.07 592.609 502.262C595.643 502.134 595.002 491.828 594.09 490.075C590.926 479.93 580.426 478.45 571.455 480.838C566.402 482.202 561.064 488.551 558.785 493.051C552.117 493.243 545.02 493.048 538.478 493.317ZM563.587 545.512C573.613 549.954 588.586 546.586 593.307 536.048C595.132 531.975 594.877 524.337 594.958 519.752L591.802 519.271C580.511 519.645 558.132 517.803 557.974 534.851C557.945 538.055 559.856 542.174 562.252 544.362C562.682 544.761 563.129 545.145 563.587 545.512Z" fill="#F8F8F7"/>
<path d="M762.004 462.139C770.976 460.576 779.894 460.092 788.955 461.32C798.928 462.783 806.678 465.929 813.204 474.143C815.377 476.879 820.974 488.113 817.632 491.303C815.475 492.562 797.91 492.184 797.18 491.503C790.573 485.336 788.626 478.245 777.517 479.442C766.356 480.644 765.979 482.965 762.953 491.657C765.792 496.637 768.53 497.954 774.212 499.419C789.072 503.237 810.373 504.199 818.752 519.025C826.648 532.562 820.991 552.096 807.449 559.748C787.847 570.826 752.027 569.452 739.519 547.931C737.836 545.038 734.904 535.219 737.265 532.302C740.148 530.829 756.48 531.896 760.305 532.534C762.528 537.776 764.223 543.708 770.12 545.584C778.612 548.285 788.598 548.083 794.624 540.9C795.33 537.933 796.174 533.865 794.316 531.084C792.333 528.042 786.209 525.15 782.656 524.731C758.561 521.887 731.53 514.191 738.412 483.453C740.663 473.389 752.157 463.969 762.004 462.139Z" fill="#F8F8F7"/>
<path d="M697.381 532.196C692.177 524.147 681.255 524.458 672.56 522.636C659.703 519.992 645.573 515.65 640.873 501.812C635.495 485.982 644.944 468.279 660.741 463.231C673.237 459.238 693.467 459.517 705.468 465.581C715.21 470.505 718.353 478.871 721.378 488.694C721.354 489.894 721.492 491.51 720.827 492.429C717.367 493.442 701.246 493.124 697.575 491.446C694.907 486.604 692.692 481.819 686.812 480.357C679.199 478.448 667.636 479.545 665.089 488.546C663.094 495.591 672.26 498.225 677.224 499.571C691.91 503.553 711.973 504.542 720.604 518.761C724.294 524.783 725.446 532.021 723.808 538.889C717.327 564.89 687.266 569.654 664.903 564.247C650.339 560.726 638.532 550.239 637.912 534.559C637.948 534.091 638.212 531.903 638.622 531.873C644.235 531.466 654.621 531.152 659.963 532.44C663.941 533.281 665.073 541.064 668.565 543.281C679.292 550.088 699.522 549.516 697.381 532.196Z" fill="#F8F8F7"/>
<path d="M721.378 488.694C721.354 489.894 721.492 491.51 720.827 492.429C717.367 493.442 701.246 493.124 697.575 491.446C702.759 489.07 714.411 490.425 720.218 489.716C720.904 489.632 720.847 489.421 721.378 488.694Z" fill="#CCCBCC"/>
<path d="M637.912 534.559C637.948 534.091 638.212 531.903 638.622 531.873C644.235 531.465 654.621 531.152 659.963 532.44C655.757 532.264 654.954 533.937 651.243 534.316C647.122 534.735 642.11 534.587 637.912 534.559Z" fill="#CCCBCC"/>
<path d="M415.216 463.804C416.012 465.813 415.474 489.653 415.453 493.534L415.61 535.593C415.612 542.135 415.832 598.384 415.439 598.97L413.882 598.71C413.204 592.235 413.435 583.796 413.462 577.183L413.716 540.009L413.489 495.331C413.444 486.673 413.249 477.823 413.681 469.185C413.799 466.83 413.625 465.206 415.216 463.804Z" fill="#4D4D4C" fill-opacity="0.0117647"/>
<path d="M233.295 566.886C243.967 565.008 287.788 568.665 293.908 565.76L295.123 566.24C295.446 567.488 295.424 566.993 295.046 568.335C291.319 571.671 251.627 569.381 244.05 569.687C241.417 569.794 230.71 569.624 228.415 568.847L228.292 568.342C229.968 566.866 231.096 567.002 233.295 566.886Z" fill="#333432" fill-opacity="0.0117647"/>
<path d="M622.054 518.261C624.536 515.316 621.462 497.914 623.628 497.426C624.954 498.981 624.122 502.689 624.309 504.862C625.655 520.717 625.108 536.537 624.317 552.398C624.208 554.539 624.67 560.923 623.932 562.493L622.906 563.078L622.889 563.669C622.816 563.404 622.468 563.008 622.285 562.767C621.202 558.984 621.896 524.25 622.054 518.261Z" fill="#3D3D3D" fill-opacity="0.0392157"/>
<path d="M443.079 558.599C443.212 557.388 444.411 555.492 445.047 554.348C445.891 569.111 444.84 584.513 445.649 598.715C443.049 598.904 440.324 599.203 437.743 598.9C439.046 598.681 441.885 598.658 443.313 598.608C442.201 591.403 442.757 566.482 443.079 558.599Z" fill="#CCCBCC" fill-opacity="0.894118"/>
<path d="M538.478 493.317C545.02 493.049 552.117 493.244 558.785 493.051L559.466 493.702L560.119 493.568L560.776 494.026C560.176 499.338 539.086 495.046 535.842 495.618L535.254 495.338L535.404 494.445C536.953 493.721 537.456 494.179 538.478 493.317Z" fill="#404041" fill-opacity="0.0196078"/>
<path d="M437.743 598.9C440.324 599.203 443.049 598.904 445.649 598.715C445.316 600.015 445.508 600.159 444.598 600.914C440.535 601.62 422.055 601.584 417.336 601.247C416.721 600.638 416.723 599.738 416.619 598.866L437.743 598.9Z" fill="#8A8989" fill-opacity="0.968627"/>
<path d="M622.285 562.767C622.468 563.008 622.816 563.404 622.889 563.668C622.606 564.89 622.528 565.283 621.888 566.411C621.06 566.576 618.558 565.843 617.629 565.57C614.709 564.708 609.96 565.649 607.754 564.208C610.649 564.131 620.103 564.229 622.285 562.767Z" fill="#404041" fill-opacity="0.0117647"/>
<path d="M516.614 534.787C516.8 537.327 517.157 542.471 515.223 544.33C513.909 544.345 513.657 543.862 513.126 542.672C513.767 540.695 515.429 538.508 516.614 534.787Z" fill="#404041" fill-opacity="0.0235294"/>
<path d="M896.865 502.157C897.153 493.176 896.841 482.142 885.099 480.284C879.409 479.383 873.005 480.08 868.544 483.791C865.729 486.131 864.143 490.338 861.337 492.684C858.413 494.457 841.841 493.841 839.225 493.401C838.438 492.646 838.167 492.046 838.069 490.869C837.684 485.281 840.365 479.819 843.593 475.457C851.352 464.971 862.724 461.471 875.102 460.901C891.949 460.124 908.464 460.911 918.612 476.208C922.205 481.628 922.302 484.565 923.13 490.882C922.83 497.077 922.712 561.152 923.556 563.398C919.881 563.827 903.764 564.494 900.702 563.623C898.268 562.125 898.26 557.713 896.735 554.826C895.802 554.575 895.097 554.877 894.363 555.498C883.299 564.836 875.276 567.052 860.733 565.512C843.622 563.7 831.97 550.394 833.555 532.987C835.786 508.545 860.753 503.939 880.91 502.897C886.247 502.617 891.621 502.878 896.865 502.157ZM868.313 546.371C874.984 547.943 881.173 547.951 887.212 544.252C897.733 537.81 896.841 530.662 896.995 519.964C895.328 519.807 893.219 519.538 891.584 519.683C883.286 520.089 868.755 519.521 863.292 525.904C857.35 532.849 860.063 542.63 868.313 546.371Z" fill="#F8F8F7"/>
<path d="M923.13 490.882C923.499 492.927 923.247 493.701 924.358 495.177L924.431 495.086C926.297 495.734 926.147 497.014 926.609 498.922V560.75C926.447 561.52 926.443 561.672 925.831 562.19L925.814 562.581C924.878 561.52 925.336 561.8 923.957 561.458L923.912 563.154L923.555 563.398C922.712 561.152 922.829 497.077 923.13 490.882Z" fill="#7A7979" fill-opacity="0.313725"/>
</g>
<defs>
<clipPath id="clip0_28_7">
<rect width="830.609" height="212" fill="white" transform="translate(96 406)"/>
</clipPath>
</defs>
</svg>
